<?xml version="1.0" standalone="no"?>
<!DOCTYPE svg PUBLIC "-//W3C//DTD SVG 20010904//EN"
 "http://www.w3.org/TR/2001/REC-SVG-20010904/DTD/svg10.dtd">
<svg version="1.0" xmlns="http://www.w3.org/2000/svg"
 width="200.000000pt" height="200.000000pt" viewBox="0 0 200.000000 200.000000"
 preserveAspectRatio="xMidYMid meet">

<g transform="translate(0.000000,200.000000) scale(0.100000,-0.100000)"
fill="#000000" stroke="none">
<path d="M990 1941 c0 -32 42 -124 121 -262 113 -199 171 -320 205 -434 24
-80 27 -106 28 -240 0 -136 -2 -157 -26 -227 -18 -55 -22 -78 -13 -78 6 0 23
35 36 78 21 68 24 95 23 232 0 139 -3 164 -28 245 -33 110 -98 248 -203 431
-79 139 -109 202 -115 238 -3 20 -28 35 -28 17z"/>
<path d="M980 1748 c0 -32 -33 -99 -129 -267 -116 -200 -205 -401 -178 -401 6
0 30 46 52 102 21 56 79 172 129 258 131 229 175 330 141 330 -9 0 -15 -9 -15
-22z"/>
<path d="M776 1164 c-13 -34 -6 -83 13 -94 12 -6 95 -10 199 -10 203 0 205 1
200 72 l-3 43 -201 3 c-177 2 -202 0 -208 -14z m394 -39 l0 -35 -187 2 c-172
3 -188 5 -191 21 -9 46 -3 47 193 47 l185 0 0 -35z"/>
<path d="M406 1044 c-9 -8 -16 -24 -16 -34 0 -10 7 -26 16 -34 13 -14 62 -16
383 -16 272 0 370 -3 379 -12 16 -16 16 -140 0 -156 -7 -7 -40 -12 -80 -12
-71 0 -88 11 -88 58 0 38 -31 52 -113 52 -109 0 -117 -9 -117 -138 0 -72 4
-103 16 -120 l15 -22 353 0 c260 0 355 3 364 12 18 18 15 53 -6 71 -20 19
-112 24 -112 7 0 -5 20 -10 44 -10 47 0 70 -17 60 -44 -5 -14 -42 -16 -350
-16 -399 0 -364 -12 -364 124 0 108 7 116 99 116 71 0 91 -10 91 -45 0 -11 7
-31 16 -43 13 -20 24 -22 93 -22 102 0 111 9 111 112 0 116 29 108 -402 108
-313 0 -367 2 -378 15 -19 23 5 45 51 45 22 0 39 5 39 10 0 17 -87 12 -104 -6z"/>
<path d="M627 874 c-8 -45 3 -165 24 -253 41 -177 126 -328 260 -464 50 -51
92 -86 99 -82 6 4 -21 37 -68 83 -185 181 -278 380 -289 625 -6 112 -15 146
-26 91z"/>
<path d="M1174 488 c-9 -18 -40 -67 -69 -108 -29 -41 -60 -89 -69 -107 -18
-35 -22 -93 -6 -93 6 0 10 11 10 25 0 33 22 76 71 142 45 60 99 149 99 163 0
21 -20 8 -36 -22z"/>
</g>
</svg>
